<svg id="visual" xmlns="http://www.w3.org/2000/svg" viewBox="0 0 1920 442"><defs><style>.cls-1{fill:#f44f43;}.cls-2{fill:#f75839;}.cls-3{fill:#f8622e;}.cls-4{fill:#f86c21;}.cls-5{fill:#f7770f;}</style></defs><path class="cls-1" d="M0,0,45.7,16.8c45.6,16.9,137,50.5,228.5,63.4S457.3,85,548.8,70.8,731.7,36.3,823,26.8s182.7-8.1,274-10.6,182.7-8.9,274.2.1,183.1,33.4,274.6,36.9,182.9-13.9,228.5-22.5L1920,22V443H0Z"/><path class="cls-2" d="M0,161l45.7-2c45.6-2,137-6,228.5-4s183.1,10,274.6-1.5S731.7,111,823,119.7s182.7,57,274,56.1,182.7-50.8,274.2-65.6,183.1,5.5,274.6,29.8,182.9,52.7,228.5,66.8L1920,221V443H0Z"/><path class="cls-3" d="M0,198l45.7-8.2c45.6-8.1,137-24.5,228.5-28.6s183.1,3.8,274.6,23.1,182.9,50,274.2,51.5,182.7-26.1,274-28.8,182.7,19.7,274.2,29,183.1,5.7,274.6,6.3,182.9,5.7,228.5,8.2L1920,253V443H0Z"/><path class="cls-4" d="M0,263l45.7,11.2c45.6,11.1,137,33.5,228.5,41.5s183.1,1.6,274.6-9.7S731.7,278.3,823,282s182.7,27.3,274,21.8,182.7-40.1,274.2-43.6,183.1,24.1,274.6,31,182.9-7.2,228.5-14.2l45.7-7V443H0Z"/><path class="cls-5" d="M0,309l45.7,7c45.6,7,137,21,228.5,30.5A2658.64,2658.64,0,0,0,548.8,361,2648,2648,0,0,0,823,346.5c91.3-9.5,182.7-23.5,274-22.5s182.7,17,274.2,29.2,183.1,20.5,274.6,18.6S1828.7,358,1874.3,352l45.7-6v97H0Z"/></svg>