<svg id="visual" viewBox="0 0 1920 1080" width="1920" height="1080" xmlns="http://www.w3.org/2000/svg" xmlns:xlink="http://www.w3.org/1999/xlink" version="1.1"><path d="M0 638L45.7 654.8C91.3 671.7 182.7 705.3 274.2 718.2C365.7 731 457.3 723 548.8 708.8C640.3 694.7 731.7 674.3 823 664.8C914.3 655.3 1005.7 656.7 1097 654.2C1188.3 651.7 1279.7 645.3 1371.2 654.3C1462.7 663.3 1554.3 687.7 1645.8 691.2C1737.3 694.7 1828.7 677.3 1874.3 668.7L1920 660L1920 1081L1874.3 1081C1828.7 1081 1737.3 1081 1645.8 1081C1554.3 1081 1462.7 1081 1371.2 1081C1279.7 1081 1188.3 1081 1097 1081C1005.7 1081 914.3 1081 823 1081C731.7 1081 640.3 1081 548.8 1081C457.3 1081 365.7 1081 274.2 1081C182.7 1081 91.3 1081 45.7 1081L0 1081Z" fill="#f44f43"></path><path d="M0 799L45.7 797C91.3 795 182.7 791 274.2 793C365.7 795 457.3 803 548.8 791.5C640.3 780 731.7 749 823 757.7C914.3 766.3 1005.7 814.7 1097 813.8C1188.3 813 1279.7 763 1371.2 748.2C1462.7 733.3 1554.3 753.7 1645.8 778C1737.3 802.3 1828.7 830.7 1874.3 844.8L1920 859L1920 1081L1874.3 1081C1828.7 1081 1737.3 1081 1645.8 1081C1554.3 1081 1462.7 1081 1371.2 1081C1279.7 1081 1188.3 1081 1097 1081C1005.7 1081 914.3 1081 823 1081C731.7 1081 640.3 1081 548.8 1081C457.3 1081 365.7 1081 274.2 1081C182.7 1081 91.3 1081 45.7 1081L0 1081Z" fill="#f75839"></path><path d="M0 836L45.7 827.8C91.3 819.7 182.7 803.3 274.2 799.2C365.7 795 457.3 803 548.8 822.3C640.3 841.7 731.7 872.3 823 873.8C914.3 875.3 1005.7 847.7 1097 845C1188.3 842.3 1279.7 864.7 1371.2 874C1462.7 883.3 1554.3 879.7 1645.8 880.3C1737.3 881 1828.7 886 1874.3 888.5L1920 891L1920 1081L1874.3 1081C1828.7 1081 1737.3 1081 1645.8 1081C1554.3 1081 1462.7 1081 1371.2 1081C1279.7 1081 1188.3 1081 1097 1081C1005.7 1081 914.3 1081 823 1081C731.7 1081 640.3 1081 548.8 1081C457.3 1081 365.7 1081 274.2 1081C182.7 1081 91.3 1081 45.7 1081L0 1081Z" fill="#f8622e"></path><path d="M0 901L45.7 912.2C91.3 923.3 182.7 945.7 274.2 953.7C365.7 961.7 457.3 955.3 548.8 944C640.3 932.7 731.7 916.3 823 920C914.3 923.7 1005.7 947.3 1097 941.8C1188.3 936.3 1279.7 901.7 1371.2 898.2C1462.7 894.7 1554.3 922.3 1645.8 929.2C1737.3 936 1828.7 922 1874.3 915L1920 908L1920 1081L1874.3 1081C1828.7 1081 1737.3 1081 1645.8 1081C1554.3 1081 1462.7 1081 1371.2 1081C1279.7 1081 1188.3 1081 1097 1081C1005.7 1081 914.3 1081 823 1081C731.7 1081 640.3 1081 548.8 1081C457.3 1081 365.7 1081 274.2 1081C182.7 1081 91.3 1081 45.7 1081L0 1081Z" fill="#f86c21"></path><path d="M0 947L45.7 954C91.3 961 182.7 975 274.2 984.5C365.7 994 457.3 999 548.8 999C640.3 999 731.7 994 823 984.5C914.3 975 1005.7 961 1097 962C1188.3 963 1279.7 979 1371.2 991.2C1462.7 1003.3 1554.3 1011.7 1645.8 1009.8C1737.3 1008 1828.7 996 1874.3 990L1920 984L1920 1081L1874.3 1081C1828.7 1081 1737.3 1081 1645.8 1081C1554.3 1081 1462.7 1081 1371.2 1081C1279.7 1081 1188.3 1081 1097 1081C1005.7 1081 914.3 1081 823 1081C731.7 1081 640.3 1081 548.8 1081C457.3 1081 365.7 1081 274.2 1081C182.7 1081 91.3 1081 45.7 1081L0 1081Z" fill="#f7770f"></path></svg>